<?xml version="1.0" encoding="utf-8"?>
<svg width="800px" height="600px"
     xmlns="http://www.w3.org/2000/svg"
     xmlns:xhtml="http://www.w3.org/1999/xhtml"
     xmlns:xlink="http://www.w3.org/1999/xlink"
     xmlns:a="http://www.adobe.com/svg10-extensions" a:timeline="independent">
     <!-- onload="top.load(evt)"-->

  <defs>
    <clipPath id="gameareaclip">
      <rect x="20" y="20" width="600" height="560"/>
    </clipPath>

    <pattern id="background_pattern" x="0" y="0" width="40" height="40" patternUnits="userSpaceOnUse">
      <rect width="40" height="40" style="fill:lightyellow"/>
      <g transform="scale(0.06)" style="fill:orange">
        <path d="M460.141,76.8c-6.4-5.333-12.8-9.6-17.067-13.867s-8.533-12.8-13.867-20.267C418.541,23.467,405.741,0,381.208,0
        c-22.4,0-41.6,20.267-64,68.267c-6.4,13.867-11.733,35.2-13.867,55.467c-7.467-5.333-17.067-8.533-26.667-8.533
        c-12.8,0-25.6,4.267-34.133,13.867L129.475,242.133c-8.533,9.6-13.867,21.333-13.867,34.133c0,8.533,2.133,18.133,6.4,25.6
        c-19.2,2.133-39.467,6.4-53.333,13.867c-46.933,22.4-67.2,40.533-68.267,62.933c-1.067,25.6,23.467,39.467,42.667,50.133
        c8.533,5.333,16,9.6,20.267,13.867c3.2,4.267,8.533,10.667,12.8,17.067c13.867,20.267,28.8,41.6,53.333,41.6
        c29.867,0,48-35.2,59.733-67.2c5.333-12.8,10.667-32,13.867-52.267c8.533,5.333,17.067,8.533,26.667,8.533
        c12.8,0,24.533-4.267,34.133-13.867l113.067-113.067c17.067-17.067,19.2-42.667,5.333-60.8c17.067-2.133,36.267-6.4,52.267-12.8
        c28.8-11.733,62.933-27.733,66.133-55.467C503.875,107.733,479.341,90.666,460.141,76.8z M150.808,421.333
        c-10.667,27.733-18.133,36.267-21.333,38.4c-5.333-3.2-13.867-16-19.2-22.4c-5.333-8.533-11.733-17.067-18.133-23.467
        c-7.467-8.533-18.133-13.867-28.8-20.267c-6.4-4.267-14.933-9.6-19.2-12.8c3.2-4.267,13.867-12.8,42.667-25.6
        c13.867-6.4,35.2-10.667,54.4-10.667c10.667,0,17.067,1.067,19.2,2.133C164.675,355.2,163.608,387.2,150.808,421.333z
         M347.075,233.6L234.008,346.666c-3.2,3.2-5.333,3.2-8.533,0l-66.133-66.133c-2.133-1.067-2.133-3.2-2.133-4.267
        s1.067-3.2,2.133-4.267l113.067-113.067c1.067-2.133,3.2-2.133,4.267-2.133s3.2,0,4.267,2.133l66.133,66.133
        C349.208,227.2,349.208,231.466,347.075,233.6z M420.675,150.4c-19.2,7.467-41.6,11.733-58.667,11.733
        c-9.6,0-13.867-1.067-16-2.133c-3.2-9.6-3.2-48,9.6-73.6c12.8-28.8,21.333-39.467,25.6-42.667c3.2,4.267,8.533,12.8,11.733,19.2
        c6.4,10.667,12.8,21.333,20.267,28.8c6.4,6.4,14.933,12.8,23.467,18.133c6.4,5.333,19.2,13.867,22.4,19.2
        C456.941,132.266,448.408,139.733,420.675,150.4z"/>
      </g>
    </pattern>

    <g id="monster">
      <animateTransform type="scale" attributeName="transform" attributeType="XML" dur="5s" values="1;1.2;1" repeatCount="indefinite"/>
      <g transform="scale(0.085)">
        <path style="fill:#FFA05A;" d="M248.399,0.135C135.421,4.152,47.514,100.436,47.514,213.484V508.8c0,2.792,3.432,4.127,5.319,2.069
          l57.191-62.39c3.756-4.098,10.216-4.098,13.971,0l55.336,60.365c3.858,4.209,10.493,4.209,14.35,0l55.334-60.365
          c3.756-4.098,10.216-4.098,13.971,0l55.334,60.365c3.858,4.209,10.493,4.209,14.35,0l55.336-60.365
          c3.756-4.098,10.216-4.098,13.971,0l57.191,62.39c1.887,2.059,5.319,0.724,5.319-2.069V208.486
          C464.489,90.819,367.009-4.082,248.399,0.135z"/>
        <path style="fill:#F08C46;" d="M151.758,227.632c0-107.205,79.072-199.275,183.593-211.938
          C308.687,4.707,279.273-0.963,248.399,0.135C135.421,4.152,47.514,100.436,47.514,213.484V508.8c0,2.792,3.432,4.127,5.319,2.069
          l57.191-62.39c3.755-4.098,10.216-4.098,13.971,0l27.762,30.285V227.632H151.758z"/>
        <path style="fill:#FFFFFF;" d="M186.385,303.255L186.385,303.255c-31.001,0-56.132-25.131-56.132-56.132v-20.412
          c0-31.001,25.131-56.132,56.132-56.132l0,0c31.001,0,56.132,25.131,56.132,56.132v20.412
          C242.515,278.124,217.385,303.255,186.385,303.255z"/>
        <path style="fill:#E4EAF6;" d="M217.002,293.049c-31.001,0-56.132-25.131-56.132-56.132v-20.412
          c0-18.952,9.419-35.676,23.803-45.839c-30.201,0.912-54.421,25.621-54.421,56.045v20.412c0,31.001,25.131,56.132,56.132,56.132
          c12.048,0,23.184-3.831,32.327-10.292C218.139,292.98,217.579,293.049,217.002,293.049z"/>
        <path style="fill:#82B9FF;" d="M201.693,262.431L201.693,262.431c-11.273,0-20.412-9.138-20.412-20.412v-10.205
          c0-11.273,9.138-20.412,20.412-20.412l0,0c11.273,0,20.412,9.138,20.412,20.412v10.205
          C222.105,253.294,212.966,262.431,201.693,262.431z"/>
        <path style="fill:#FFFFFF;" d="M325.619,303.255L325.619,303.255c-31.001,0-56.132-25.131-56.132-56.132v-20.412
          c0-31.001,25.131-56.132,56.132-56.132l0,0c31.001,0,56.132,25.131,56.132,56.132v20.412
          C381.75,278.124,356.619,303.255,325.619,303.255z"/>
        <path style="fill:#E4EAF6;" d="M356.236,293.049c-31.001,0-56.132-25.131-56.132-56.132v-20.412
          c0-18.952,9.419-35.676,23.804-45.839c-30.201,0.912-54.421,25.621-54.421,56.045v20.412c0,31.001,25.131,56.132,56.132,56.132
          c12.048,0,23.184-3.831,32.327-10.292C357.374,292.98,356.814,293.049,356.236,293.049z"/>
        <path style="fill:#82B9FF;" d="M340.927,262.431L340.927,262.431c-11.273,0-20.412-9.138-20.412-20.412v-10.205
          c0-11.273,9.138-20.412,20.412-20.412l0,0c11.273,0,20.412,9.138,20.412,20.412v10.205
          C361.339,253.294,352.201,262.431,340.927,262.431z"/>
        </g>
    </g>
    
    <g id="candy" transform="scale(0.04)" style="fill:orange">
      <path d="M460.141,76.8c-6.4-5.333-12.8-9.6-17.067-13.867s-8.533-12.8-13.867-20.267C418.541,23.467,405.741,0,381.208,0
        c-22.4,0-41.6,20.267-64,68.267c-6.4,13.867-11.733,35.2-13.867,55.467c-7.467-5.333-17.067-8.533-26.667-8.533
        c-12.8,0-25.6,4.267-34.133,13.867L129.475,242.133c-8.533,9.6-13.867,21.333-13.867,34.133c0,8.533,2.133,18.133,6.4,25.6
        c-19.2,2.133-39.467,6.4-53.333,13.867c-46.933,22.4-67.2,40.533-68.267,62.933c-1.067,25.6,23.467,39.467,42.667,50.133
        c8.533,5.333,16,9.6,20.267,13.867c3.2,4.267,8.533,10.667,12.8,17.067c13.867,20.267,28.8,41.6,53.333,41.6
        c29.867,0,48-35.2,59.733-67.2c5.333-12.8,10.667-32,13.867-52.267c8.533,5.333,17.067,8.533,26.667,8.533
        c12.8,0,24.533-4.267,34.133-13.867l113.067-113.067c17.067-17.067,19.2-42.667,5.333-60.8c17.067-2.133,36.267-6.4,52.267-12.8
        c28.8-11.733,62.933-27.733,66.133-55.467C503.875,107.733,479.341,90.666,460.141,76.8z M150.808,421.333
        c-10.667,27.733-18.133,36.267-21.333,38.4c-5.333-3.2-13.867-16-19.2-22.4c-5.333-8.533-11.733-17.067-18.133-23.467
        c-7.467-8.533-18.133-13.867-28.8-20.267c-6.4-4.267-14.933-9.6-19.2-12.8c3.2-4.267,13.867-12.8,42.667-25.6
        c13.867-6.4,35.2-10.667,54.4-10.667c10.667,0,17.067,1.067,19.2,2.133C164.675,355.2,163.608,387.2,150.808,421.333z
         M347.075,233.6L234.008,346.666c-3.2,3.2-5.333,3.2-8.533,0l-66.133-66.133c-2.133-1.067-2.133-3.2-2.133-4.267
        s1.067-3.2,2.133-4.267l113.067-113.067c1.067-2.133,3.2-2.133,4.267-2.133s3.2,0,4.267,2.133l66.133,66.133
        C349.208,227.2,349.208,231.466,347.075,233.6z M420.675,150.4c-19.2,7.467-41.6,11.733-58.667,11.733
        c-9.6,0-13.867-1.067-16-2.133c-3.2-9.6-3.2-48,9.6-73.6c12.8-28.8,21.333-39.467,25.6-42.667c3.2,4.267,8.533,12.8,11.733,19.2
        c6.4,10.667,12.8,21.333,20.267,28.8c6.4,6.4,14.933,12.8,23.467,18.133c6.4,5.333,19.2,13.867,22.4,19.2
        C456.941,132.266,448.408,139.733,420.675,150.4z"/>
    </g>

    <g id="bullet">
      <circle cx="5" cy="5" r="5" style="fill:red"/>
      <circle cx="6" cy="3" r="1" style="fill:pink"/>
    </g>
  </defs>

  <rect width="100%" height="100%" style="fill:url(#background_pattern);stroke:darkblue;stroke-width:4" />

  <rect x="20" y="20" width="600" height="560" style="fill:black;stroke:darkblue;stroke-width:5" />

  <g>
    <g transform="translate(640, 100)">
      <text x="70" y="0" style="fill:black;font-size:32px;font-weight:bold;text-anchor:middle">Jumping</text>
    </g>
    <g transform="translate(640, 140)">
      <text x="70" y="0" style="fill:black;font-size:32px;font-weight:bold;text-anchor:middle">Pacman</text>
    </g>
    
    <g transform="translate(640, 200)">
      <text x="70" y="0" style="fill:black;font-size:25px;font-weight:bold;text-anchor:middle">Level:</text>
      <rect x="0" y="10" width="140" height="35" style="fill:white" />
      <text id="level" x="70" y="36" style="fill:black;font-size:25px;text-anchor:middle">1</text>
    </g>

    <g transform="translate(640, 300)">
      <text x="70" y="0" style="fill:black;font-size:25px;font-weight:bold;text-anchor:middle">Score:</text>
      <rect x="0" y="10" width="140" height="35" style="fill:white" />
      <text id="score" x="70" y="36" style="fill:black;font-size:25px;text-anchor:middle">0</text>
    </g>

    <g transform="translate(640, 400)">
      <text x="70" y="0" style="fill:black;font-size:25px;font-weight:bold;text-anchor:middle">Time:</text>
      <rect x="0" y="10" width="140" height="35" style="fill:white" />
      <text id="timer" x="70" y="36" style="fill:black;font-size:25px;text-anchor:middle">60s</text>
    </g>

    <g transform="translate(640, 500)">
      <text x="70" y="0" style="fill:black;font-size:25px;font-weight:bold;text-anchor:middle">Bullets:</text>
      <rect x="0" y="10" width="140" height="35" style="fill:white" />
      <text id="bullets_number" x="70" y="36" style="fill:black;font-size:25px;text-anchor:middle">8</text>
    </g>
  </g>

  <g style="clip-path:url(#gameareaclip)">
    <g transform="translate(20,20)">
      <g id="gamearea" transform="translate(0,0)" width="600" height="560">
        <rect x="0" y="0" width="600" height="560" style="fill:black" />

        <g id="platforms">
            <!-- 60 -->
            <rect style="fill:lightblue" width="150" height="20" x="0" y="60"/>
            <line x1="200" y1="70" x2="400" y2="70" type="disappearing" style="opacity:1;stroke:blue;stroke-width:20"/>
            <rect style="fill:lightblue" width="150" height="20" x="450" y="60"/>
            <!-- 80 -->
            <rect style="fill:lightblue" width="40" height="20" x="40" y="80"/>

            <!-- 100 -->
            <rect style="fill:lightblue" width="20" height="20" x="60" y="100"/>

            <!-- 120 -->
            <rect style="fill:lightblue" width="420" height="20" x="60" y="120"/>

            <!-- 140 -->
            <rect style="fill:lightblue" width="20" height="20" x="220" y="140"/>
            <rect style="fill:lightblue" width="20" height="20" x="580" y="140"/>

            <!-- 160 -->
            <rect style="fill:lightblue" width="20" height="20" x="220" y="160"/>
            <rect style="fill:lightblue" width="40" height="20" x="560" y="160"/>

            <!-- 180 -->
            <line x1="0" y1="190" x2="120" y2="190" type="disappearing" style="opacity:1;stroke:blue;stroke-width:20"/>
            <rect style="fill:lightblue" width="120" height="20" x="180" y="180"/>
            <rect style="fill:lightblue" width="20" height="20" x="380" y="180"/>
            <rect style="fill:lightblue" width="80" height="20" x="520" y="180"/>

            <!-- 200 -->
            <rect style="fill:lightblue" width="80" height="20" x="360" y="200"/>

            <!-- 220 -->
            <rect style="fill:lightblue" width="120" height="20" x="340" y="220"/>

            <!-- 240 -->
            <rect style="fill:lightblue" width="160" height="20" x="0" y="240"/>
            <rect style="fill:lightblue" width="20" height="20" x="240" y="240"/>

            <!-- 260 -->
            <rect style="fill:lightblue" width="40" height="20" x="240" y="260"/>
            <rect id="vertical_platform" style="fill:red" width="80" height="20" x="500" y="260"/>

            <!-- 280 -->
            <rect style="fill:lightblue" width="80" height="20" x="220" y="280"/>

            <!-- 300 -->
            <rect style="fill:lightblue" width="60" height="20" x="0" y="300"/>
            <rect style="fill:lightblue" width="40" height="20" x="200" y="300"/>
            <rect style="fill:lightblue" width="40" height="20" x="280" y="300"/>

            <!-- 320 -->
            <rect style="fill:lightblue" width="40" height="20" x="280" y="320"/>
            <rect style="fill:lightblue" width="20" height="20" x="380" y="320"/>

            <!-- 340 -->
            <line x1="120" y1="350" x2="180" y2="350" type="disappearing" style="opacity:1;stroke:blue;stroke-width:20"/>
            <rect style="fill:lightblue" width="20" height="20" x="300" y="340"/>
            <rect style="fill:lightblue" width="60" height="20" x="380" y="340"/>

            <!-- 360 -->
            <rect style="fill:lightblue" width="40" height="20" x="0" y="360"/>
            <rect style="fill:lightblue" width="40" height="20" x="300" y="360"/>
            <rect style="fill:lightblue" width="60" height="20" x="400" y="360"/>

            <!-- 380 -->
            <rect style="fill:lightblue" width="60" height="20" x="0" y="380"/>
            <rect style="fill:lightblue" width="20" height="20" x="220" y="380"/>

            <!-- 400 -->
            <rect style="fill:lightblue" width="100" height="20" x="0" y="400"/>
            <rect style="fill:lightblue" width="60" height="20" x="200" y="400"/>

            <!-- 420 -->
            <rect style="fill:lightblue" width="80" height="20" x="0" y="420"/>
            <rect style="fill:lightblue" width="140" height="20" x="200" y="420"/>
            <rect style="fill:lightblue" width="60" height="20" x="540" y="420"/>

            <!-- 440 -->
            <rect style="fill:lightblue" width="60" height="20" x="0" y="440"/>
            <rect style="fill:lightblue" width="100" height="20" x="140" y="440"/>
            <rect style="fill:lightblue" width="20" height="20" x="420" y="440"/>
            <rect style="fill:lightblue" width="80" height="20" x="480" y="440"/>

            <!-- 460 -->
            <rect style="fill:lightblue" width="40" height="20" x="0" y="460"/>
            <rect style="fill:lightblue" width="60" height="20" x="120" y="460"/>
            <rect style="fill:lightblue" width="60" height="20" x="380" y="460"/>

            <!-- 480 -->
            <rect style="fill:lightblue" width="60" height="20" x="360" y="480"/>

            <!-- 500 -->
            <rect style="fill:lightblue" width="20" height="20" x="280" y="500"/>

            <!-- 520 -->
            <rect style="fill:lightblue" width="20" height="20" x="140" y="520"/>
            <rect style="fill:lightblue" width="80" height="20" x="240" y="520"/>
            <rect style="fill:lightblue" width="20" height="20" x="500" y="520"/>

            <!-- the floor -->
            <rect style="fill:lightblue" width="600" height="20" x="0" y="540"/>
        </g>
        
        <g id="portal_1" transform="translate(0,10)scale(0.1)" x="0" y="20">
            <path d="M403.069,43.196h-32.911c-5.632,0-10.199,4.566-10.199,10.199v6.256h-73.191V30.768C286.768,13.803,272.966,0,256.001,0    c-16.965,0-30.768,13.803-30.768,30.768V59.65h-73.191v-6.256c0-5.633-4.567-10.199-10.199-10.199h-32.911    c-5.632,0-10.199,4.566-10.199,10.199v448.407c0,5.633,4.567,10.199,10.199,10.199h32.911c5.632,0,10.199-4.566,10.199-10.199    v-336.39h207.918v336.39c0,5.633,4.567,10.199,10.199,10.199h32.911c5.632,0,10.199-4.566,10.199-10.199V53.395    C413.268,47.762,408.702,43.196,403.069,43.196z M131.643,491.602H119.13V63.594h12.512V491.602z M245.631,30.768    c0-5.718,4.652-10.37,10.37-10.37c5.718,0,10.37,4.652,10.37,10.37V59.65h-20.739V30.768z M359.96,145.011H152.041V80.048H359.96    V145.011z M392.871,491.602h-12.512V63.594h12.512V491.602z" fill="orange"/>
        </g>
        <g id="portal_2" transform="translate(550,490) scale(0.1)" x="560" y="500" >
            <path d="M403.069,43.196h-32.911c-5.632,0-10.199,4.566-10.199,10.199v6.256h-73.191V30.768C286.768,13.803,272.966,0,256.001,0    c-16.965,0-30.768,13.803-30.768,30.768V59.65h-73.191v-6.256c0-5.633-4.567-10.199-10.199-10.199h-32.911    c-5.632,0-10.199,4.566-10.199,10.199v448.407c0,5.633,4.567,10.199,10.199,10.199h32.911c5.632,0,10.199-4.566,10.199-10.199    v-336.39h207.918v336.39c0,5.633,4.567,10.199,10.199,10.199h32.911c5.632,0,10.199-4.566,10.199-10.199V53.395    C413.268,47.762,408.702,43.196,403.069,43.196z M131.643,491.602H119.13V63.594h12.512V491.602z M245.631,30.768    c0-5.718,4.652-10.37,10.37-10.37c5.718,0,10.37,4.652,10.37,10.37V59.65h-20.739V30.768z M359.96,145.011H152.041V80.048H359.96    V145.011z M392.871,491.602h-12.512V63.594h12.512V491.602z" fill="orange"/>
        </g>

        <g id="exit" transform="translate(550,10) scale(0.1)" x="560" y="20">
          <path style="fill:#0072A2;" d="M398.926,475.163H113.074V14.757c0-4.126,3.345-7.471,7.471-7.471h270.91
            c4.126,0,7.471,3.345,7.471,7.471L398.926,475.163L398.926,475.163z"/>
          <path style="fill:#006289;" d="M391.455,7.287h-33.553c4.126,0,7.471,3.345,7.471,7.471v460.406h33.553V14.757
            C398.926,10.631,395.581,7.287,391.455,7.287z"/>
          <path style="fill:#A0D860;" d="M147.292,475.163V46.528c0-4.647,3.767-8.414,8.414-8.414h200.59c4.647,0,8.414,3.767,8.414,8.414
            v428.635L147.292,475.163L147.292,475.163z"/>
          <path style="fill:#61C979;" d="M356.296,38.114h-24.897c4.647,0,8.414,3.767,8.414,8.414v428.635h24.897V46.528
            C364.71,41.881,360.942,38.114,356.296,38.114z"/>
          <g>
            <path style="fill:#F7F9F9;" d="M237.781,175.608h-57.105c-2.823,0-5.112-2.289-5.112-5.112V72.357c0-2.823,2.289-5.112,5.112-5.112
              h57.105c2.823,0,5.112,2.289,5.112,5.112v98.139C242.893,173.319,240.604,175.608,237.781,175.608z"/>
            <path style="fill:#F7F9F9;" d="M331.324,175.608h-57.105c-2.823,0-5.112-2.289-5.112-5.112V72.357c0-2.823,2.289-5.112,5.112-5.112
              h57.105c2.823,0,5.112,2.289,5.112,5.112v98.139C336.436,173.319,334.147,175.608,331.324,175.608z"/>
            <path style="fill:#F7F9F9;" d="M237.781,311.42h-57.105c-2.823,0-5.112-2.289-5.112-5.112v-98.139c0-2.823,2.289-5.112,5.112-5.112
              h57.105c2.823,0,5.112,2.289,5.112,5.112v98.139C242.893,309.131,240.604,311.42,237.781,311.42z"/>
            <path style="fill:#F7F9F9;" d="M331.324,311.42h-57.105c-2.823,0-5.112-2.289-5.112-5.112v-98.139c0-2.823,2.289-5.112,5.112-5.112
              h57.105c2.823,0,5.112,2.289,5.112,5.112v98.139C336.436,309.131,334.147,311.42,331.324,311.42z"/>
            <path style="fill:#F7F9F9;" d="M237.781,447.231h-57.105c-2.823,0-5.112-2.289-5.112-5.112V343.98c0-2.823,2.289-5.112,5.112-5.112
              h57.105c2.823,0,5.112,2.289,5.112,5.112v98.139C242.893,444.942,240.604,447.231,237.781,447.231z"/>
            <path style="fill:#F7F9F9;" d="M331.324,447.231h-57.105c-2.823,0-5.112-2.289-5.112-5.112V343.98c0-2.823,2.289-5.112,5.112-5.112
              h57.105c2.823,0,5.112,2.289,5.112,5.112v98.139C336.436,444.942,334.147,447.231,331.324,447.231z"/>
          </g>
          <g>
            <path style="fill:#E4E4E4;" d="M331.324,67.245h-24.912c2.823,0,5.112,2.289,5.112,5.112v98.139c0,2.823-2.289,5.112-5.112,5.112
              h24.912c2.823,0,5.112-2.289,5.112-5.112V72.357C336.436,69.534,334.147,67.245,331.324,67.245z"/>
            <path style="fill:#E4E4E4;" d="M331.324,203.057h-24.912c2.823,0,5.112,2.289,5.112,5.112v98.139c0,2.823-2.289,5.112-5.112,5.112
              h24.912c2.823,0,5.112-2.289,5.112-5.112v-98.139C336.436,205.346,334.147,203.057,331.324,203.057z"/>
            <path style="fill:#E4E4E4;" d="M331.324,338.868h-24.912c2.823,0,5.112,2.289,5.112,5.112v98.139c0,2.823-2.289,5.112-5.112,5.112
              h24.912c2.823,0,5.112-2.289,5.112-5.112V343.98C336.436,341.157,334.147,338.868,331.324,338.868z"/>
            <path style="fill:#E4E4E4;" d="M237.781,67.245H212.87c2.823,0,5.112,2.289,5.112,5.112v98.139c0,2.823-2.289,5.112-5.112,5.112
              h24.912c2.823,0,5.112-2.289,5.112-5.112V72.357C242.893,69.534,240.604,67.245,237.781,67.245z"/>
            <path style="fill:#E4E4E4;" d="M237.781,203.057H212.87c2.823,0,5.112,2.289,5.112,5.112v98.139c0,2.823-2.289,5.112-5.112,5.112
              h24.912c2.823,0,5.112-2.289,5.112-5.112v-98.139C242.893,205.346,240.604,203.057,237.781,203.057z"/>
            <path style="fill:#E4E4E4;" d="M237.781,338.868H212.87c2.823,0,5.112,2.289,5.112,5.112v98.139c0,2.823-2.289,5.112-5.112,5.112
              h24.912c2.823,0,5.112-2.289,5.112-5.112V343.98C242.893,341.157,240.604,338.868,237.781,338.868z"/>
          </g>
          <path style="fill:#D96B37;" d="M427.835,504.713H84.166c-1.87,0-3.386-1.516-3.386-3.386v-25.546c0-1.87,1.516-3.386,3.386-3.386
            h343.668c1.87,0,3.386,1.516,3.386,3.386v25.546C431.221,503.197,429.704,504.713,427.835,504.713z"/>
          <path style="fill:#B14418;" d="M427.835,472.395h-30.167v32.319h30.167c1.87,0,3.386-1.516,3.386-3.386v-25.546
            C431.221,473.911,429.704,472.395,427.835,472.395z"/>
          <g>
            <path style="fill:#1A1A1A;" d="M237.781,59.959h-57.105c-6.836,0-12.398,5.562-12.398,12.398v98.139
              c0,6.837,5.562,12.399,12.398,12.399h57.105c6.836,0,12.398-5.562,12.398-12.399V72.357
              C250.18,65.521,244.617,59.959,237.781,59.959z M235.607,168.322h-52.756v-93.79h52.756V168.322z"/>
            <path style="fill:#1A1A1A;" d="M331.324,59.959H274.22c-6.837,0-12.398,5.562-12.398,12.398v98.139
              c0,6.837,5.562,12.399,12.398,12.399h57.104c6.837,0,12.398-5.562,12.398-12.399V72.357
              C343.722,65.521,338.161,59.959,331.324,59.959z M329.149,168.322h-52.755v-93.79h52.755V168.322z"/>
            <path style="fill:#1A1A1A;" d="M237.781,195.77h-57.105c-6.836,0-12.398,5.562-12.398,12.398v98.139
              c0,6.836,5.562,12.398,12.398,12.398h57.105c6.836,0,12.398-5.562,12.398-12.398v-98.139
              C250.18,201.333,244.617,195.77,237.781,195.77z M235.607,304.133h-52.756v-93.789h52.756V304.133z"/>
            <path style="fill:#1A1A1A;" d="M331.324,195.77H274.22c-6.837,0-12.398,5.562-12.398,12.398v98.139
              c0,6.836,5.562,12.398,12.398,12.398h57.104c6.837,0,12.398-5.562,12.398-12.398v-98.139
              C343.722,201.333,338.161,195.77,331.324,195.77z M329.149,304.133h-52.755v-93.789h52.755V304.133z"/>
            <path style="fill:#1A1A1A;" d="M237.781,331.582h-57.105c-6.836,0-12.398,5.562-12.398,12.398v98.139
              c0,6.836,5.562,12.398,12.398,12.398h57.105c6.836,0,12.398-5.562,12.398-12.398V343.98
              C250.18,337.144,244.617,331.582,237.781,331.582z M235.607,439.944h-52.756v-93.789h52.756V439.944z"/>
            <path style="fill:#1A1A1A;" d="M331.324,331.582H274.22c-6.837,0-12.398,5.562-12.398,12.398v98.139
              c0,6.836,5.562,12.398,12.398,12.398h57.104c6.837,0,12.398-5.562,12.398-12.398V343.98
              C343.722,337.144,338.161,331.582,331.324,331.582z M329.149,439.944h-52.755v-93.789h52.755V439.944z"/>
            <path style="fill:#1A1A1A;" d="M427.835,465.108h-21.622V245.192c0-4.024-3.262-7.287-7.287-7.287s-7.287,3.262-7.287,7.287
              v219.917h-19.643V46.528c0-8.657-7.043-15.701-15.7-15.701h-200.59c-8.658,0-15.701,7.043-15.701,15.701v418.58h-19.643V245.122
              c0-4.024-3.262-7.287-7.287-7.287s-7.287,3.262-7.287,7.287v219.986H84.166c-5.885,0-10.673,4.788-10.673,10.673v25.547
              c0,5.885,4.788,10.673,10.673,10.673h343.668c5.885,0,10.673-4.788,10.673-10.673v-25.547
              C438.507,469.896,433.719,465.108,427.835,465.108z M154.577,46.528c0-0.622,0.506-1.128,1.128-1.128h200.591
              c0.621,0,1.127,0.506,1.127,1.128v418.58H154.577V46.528z M423.934,497.427H88.066v-17.746h25.008h34.216h217.418h34.216h25.009
              L423.934,497.427L423.934,497.427z"/>
            <path style="fill:#1A1A1A;" d="M113.074,217.138c4.024,0,7.287-3.262,7.287-7.287V14.757c0-0.102,0.083-0.184,0.184-0.184h270.91
              c0.102,0,0.184,0.083,0.184,0.184v195.702c0,4.024,3.262,7.287,7.287,7.287s7.287-3.262,7.287-7.287V14.757
              C406.212,6.62,399.592,0,391.455,0h-270.91c-8.137,0-14.757,6.62-14.757,14.757v195.094
              C105.788,213.876,109.05,217.138,113.074,217.138z"/>
          </g>
        </g>

        <g id="candies"/>
        <g id="monsters"/>
        <g id="bullets"/>
        <g id="monster_bullet"/>

        <g id="player">
          <g id="name">
            <text id="nametxt" x="8" y="0" style="fill:white;font-size:10px;font-weight:bold">
              Anonymous
            </text>
          </g>
          <g transform="scale(0.08)">
            <circle style="fill:#FF3962;" cx="456.348" cy="256" r="44.522"/>
            <path style="fill:#FFE66A;" d="M429.148,82.852C384.836,38.538,323.618,11.13,256,11.13C120.762,11.13,11.13,120.762,11.13,256
              S120.762,500.87,256,500.87c67.619,0,128.836-27.408,173.148-71.721L256,256L429.148,82.852z"/>
            <path d="M159.141,418.582c-23.77-14.194-44.535-33.833-60.05-56.797c-3.442-5.094-10.361-6.435-15.453-2.992
              c-5.093,3.442-6.433,10.36-2.992,15.454c17.33,25.651,40.527,47.591,67.083,63.448c1.788,1.067,3.754,1.576,5.695,1.576
              c3.789,0,7.483-1.937,9.567-5.426C166.143,428.567,164.419,421.734,159.141,418.582z"/>
            <path d="M192.914,434.449l-0.395-0.14c-5.788-2.062-12.158,0.961-14.219,6.752c-2.062,5.791,0.961,12.157,6.752,14.219l0.465,0.166
              c1.223,0.431,2.471,0.636,3.699,0.636c4.589,0,8.887-2.861,10.498-7.435C201.756,442.847,198.712,436.491,192.914,434.449z"/>
            <path d="M271.741,256L437.02,90.722c4.346-4.346,4.346-11.394,0-15.742C388.667,26.628,324.38,0,256,0S123.333,26.628,74.981,74.981
              C26.628,123.333,0,187.62,0,256c0,68.381,26.628,132.667,74.981,181.02C123.333,485.372,187.62,512,256,512
              c68.381,0,132.668-26.628,181.02-74.981c4.346-4.346,4.346-11.394,0-15.741L271.741,256z M256,489.739
              C127.116,489.739,22.261,384.884,22.261,256S127.116,22.261,256,22.261c58.711,0,114.115,21.497,157.225,60.773L248.13,248.13
              c-4.346,4.346-4.346,11.394,0,15.742l165.096,165.096C370.115,468.242,314.712,489.739,256,489.739z"/>
            <path d="M456.348,200.348c-6.147,0-11.13,4.983-11.13,11.13c0,6.147,4.983,11.13,11.13,11.13c18.412,0,33.391,14.979,33.391,33.391
              s-14.979,33.391-33.391,33.391S422.957,274.412,422.957,256c0-5.875,1.544-11.647,4.463-16.693
              c3.079-5.32,1.261-12.129-4.059-15.209c-5.32-3.079-12.129-1.261-15.209,4.059c-4.878,8.431-7.456,18.058-7.456,27.843
              c0,30.687,24.966,55.652,55.652,55.652S512,286.687,512,256S487.034,200.348,456.348,200.348z"/>
            <path d="M211.478,89.043c-18.412,0-33.391,14.979-33.391,33.391s14.979,33.391,33.391,33.391s33.391-14.979,33.391-33.391
              S229.89,89.043,211.478,89.043z M211.478,133.565c-6.137,0-11.13-4.993-11.13-11.13s4.993-11.13,11.13-11.13
              s11.13,4.993,11.13,11.13S217.616,133.565,211.478,133.565z"/>
          </g>
        </g>
      </g>
      
      <g id="highscoretable" transform="translate(40,40)" style="visibility:hidden">
        <rect width="520" height="480" style="fill:lightyellow;stroke:red;stroke-width:3"/>
        <text x="260" y="40" style="fill:red;font-size:30px;font-weight:bold;text-anchor:middle">High Score Table</text> 
        <text id="highscoretext" y="45" style="font-size: 20px;font-weight:bold"/>
        <text x="160" y="320" style="fill:red;font-size:30px;font-weight:bold;text-anchor:middle">Your score: </text>
        <text id="yourscoretext" x="260" y="320" style="fill:red;font-size:30px;font-weight:bold;text-anchor:middle">0</text>
        <g id = "restart_button" onclick = "top.restart()">
          <rect x = "180" y ="360" width = "160" height = "65" style = "fill:white;stroke:black;strokef-width:2"></rect>
          <text x="200" y="400" style="font-size:18px;stoke:orange;stroke-width:2;font-weight:bold">START AGAIN?</text>
        </g>
      </g>

    </g>
  </g>
  
  <g id="startingscreen">
    <rect x="20" y="20" width="760" height="560" style="fill:black;stroke:darkblue;stroke-width:5" />

    <text x="400" y="60" style="fill:white;font-size:40px;font-weight:bold;text-anchor:middle;font-style:oblique;">
        Jumping Pacman
    </text>

    <text x="30" y="120" style="fill:white;font-size:30px;font-weight:bold">
      Pacman is back again! This time he can jump!
    </text>

    <text x="30" y="170" style="fill:white;font-size:30px;font-weight:bold">
      Let's collect candies, kill the monsters and escape!
    </text> 

    <text x="30" y="220" style="fill:white;font-size:30px;font-weight:bold">
      Press 
      <tspan style ="fill:orange">M</tspan>
       and 
      <tspan style ="fill:orange">N</tspan>
       to move right and left, and press
      <tspan style ="fill:orange">Z</tspan>
       to jump. 
    </text>

    <text x="30" y="270" style="fill:white;font-size:30px;font-weight:bold">
      Press
      <tspan style ="fill:orange">
       SPACEBAR
     </tspan>
      to shoot and kill monster.
    </text>

    <text x="30" y="320" style="fill:white;font-size:30px;font-weight:bold">
      Press 
      <tspan style ="fill:orange">C</tspan>
       and 
      <tspan style ="fill:orange">V</tspan>
       to enter or leave the cheat mode.
    </text>

    <text x="30" y="370" style="fill:white;font-size:30px;font-weight:bold">
      Go to the EXIT after collecting ALL the candies.
    </text>

    <text x="30" y="420" style="fill:white;font-size:30px;font-weight:bold">
      Let's Go!
    </text>

    <g id = "button" onclick = "top.load(evt)">
        <rect x = "300" y ="460" width = "200" height = "80" style = "fill:white;stroke:black;strokef-width:1"></rect>
        <text x="330" y="510" style="font-size:40px;stoke:orange;stroke-width:4;font-weight:bold">START</text>
    </g>
    <text x = "600" y = "550" style="fill:white;font-size:14px;font-weight:bold"> Copyright: DOU Daihui</text>
  </g>

</svg>